<?xml version="1.0" encoding="UTF-8"?>
<svg width="25px" height="25px" viewBox="0 0 25 25" version="1.1" xmlns="http://www.w3.org/2000/svg" xmlns:xlink="http://www.w3.org/1999/xlink">
    <!-- Generator: Sketch 51.1 (57501) - http://www.bohemiancoding.com/sketch -->
    <title>Group 12</title>
    <desc>Created with Sketch.</desc>
    <defs></defs>
    <g id="确认" stroke="none" stroke-width="1" fill="none" fill-rule="evenodd">
        <g id="图标" transform="translate(-159.000000, -99.000000)" fill="#FFFFFF" fill-rule="nonzero">
            <g id="Group-3-Copy-2" transform="translate(159.057427, 99.875000)">
                <g id="Group" transform="translate(3.500000, 3.500000)">
                    <path d="M6,1 L2.27872889,1 C1.57250643,1 1,1.57250643 1,2.27872889 L1,6 L6,6 L6,1 Z M2.27872889,-1 L7,-1 C7.55228475,-1 8,-0.55228475 8,0 L8,7 C8,7.55228475 7.55228475,8 7,8 L0,8 C-0.55228475,8 -1,7.55228475 -1,7 L-1,2.27872889 C-1,0.467936927 0.467936927,-1 2.27872889,-1 Z" id="Rectangle-2"></path>
                    <path d="M16,1 L12.2787289,1 C11.5725064,1 11,1.57250643 11,2.27872889 L11,6 L16,6 L16,1 Z M12.2787289,-1 L17,-1 C17.5522847,-1 18,-0.55228475 18,0 L18,7 C18,7.55228475 17.5522847,8 17,8 L10,8 C9.44771525,8 9,7.55228475 9,7 L9,2.27872889 C9,0.467936927 10.4679369,-1 12.2787289,-1 Z" id="Rectangle-2" transform="translate(13.500000, 3.500000) scale(-1, 1) translate(-13.500000, -3.500000) "></path>
                    <path d="M2.27872889,11 C1.57250643,11 1,11.5725064 1,12.2787289 L1,16 L6,16 L6,11 L2.27872889,11 Z M2.27872889,9 L7,9 C7.55228475,9 8,9.44771525 8,10 L8,17 C8,17.5522847 7.55228475,18 7,18 L0,18 C-0.55228475,18 -1,17.5522847 -1,17 L-1,12.2787289 C-1,10.4679369 0.467936927,9 2.27872889,9 Z" id="Rectangle-2" transform="translate(3.500000, 13.500000) scale(1, -1) translate(-3.500000, -13.500000) "></path>
                    <path d="M12.2787289,11 C11.5725064,11 11,11.5725064 11,12.2787289 L11,16 L16,16 L16,11 L12.2787289,11 Z M12.2787289,9 L17,9 C17.5522847,9 18,9.44771525 18,10 L18,17 C18,17.5522847 17.5522847,18 17,18 L10,18 C9.44771525,18 9,17.5522847 9,17 L9,12.2787289 C9,10.4679369 10.4679369,9 12.2787289,9 Z" id="Rectangle-2" transform="translate(13.500000, 13.500000) scale(-1, -1) translate(-13.500000, -13.500000) "></path>
                </g>
            </g>
        </g>
    </g>
</svg>