<?xml version="1.0" encoding="UTF-8"?>
<svg width="25px" height="25px" viewBox="0 0 25 25" version="1.1" xmlns="http://www.w3.org/2000/svg" xmlns:xlink="http://www.w3.org/1999/xlink">
    <!-- Generator: Sketch 51.1 (57501) - http://www.bohemiancoding.com/sketch -->
    <title>Group 12</title>
    <desc>Created with Sketch.</desc>
    <defs></defs>
    <g id="确认" stroke="none" stroke-width="1" fill="none" fill-rule="evenodd">
        <g id="图标" transform="translate(-216.000000, -99.000000)">
            <g id="Group-2" transform="translate(216.163601, 99.375000)">
                <polygon id="Rectangle-14" stroke="#FFFFFF" stroke-width="2" points="4 4 20 4 20 16 4 16"></polygon>
                <path d="M3,3 L21,3 C21.5522847,3 22,3.44771525 22,4 L22,4 C22,4.55228475 21.5522847,5 21,5 L3,5 C2.44771525,5 2,4.55228475 2,4 L2,4 C2,3.44771525 2.44771525,3 3,3 Z" id="Rectangle-12" fill="#FFFFFF"></path>
                <path d="M3,15 L21,15 C21.5522847,15 22,15.4477153 22,16 L22,16 C22,16.5522847 21.5522847,17 21,17 L3,17 C2.44771525,17 2,16.5522847 2,16 L2,16 C2,15.4477153 2.44771525,15 3,15 Z" id="Rectangle-12" fill="#FFFFFF"></path>
                <rect id="Rectangle-16" fill="#FFFFFF" x="11" y="17" width="2" height="4"></rect>
                <path d="M12,17 C12.5522847,17 13,17.5154416 13,18 L13,24 C13,24.4845584 12.5522847,25 12,25 C11.4477153,25 11,24.4845584 11,24 L11,18 C11,17.5154416 11.4477153,17 12,17 Z" id="Rectangle-8-Copy-4" fill="#FFFFFF" transform="translate(12.000000, 21.000000) rotate(-270.000000) translate(-12.000000, -21.000000) "></path>
                <polyline id="Path-2" stroke="#FFFFFF" stroke-width="2" stroke-linecap="round" stroke-linejoin="round" points="7 12 10 10 12 12 17 8"></polyline>
            </g>
        </g>
    </g>
</svg>