<?xml version="1.0" encoding="UTF-8"?>
<svg width="25px" height="25px" viewBox="0 0 25 25" version="1.1" xmlns="http://www.w3.org/2000/svg" xmlns:xlink="http://www.w3.org/1999/xlink">
    <!-- Generator: Sketch 50.2 (55047) - http://www.bohemiancoding.com/sketch -->
    <title>Group 11</title>
    <desc>Created with Sketch.</desc>
    <defs></defs>
    <g id="Page-1" stroke="none" stroke-width="1" fill="none" fill-rule="evenodd">
        <g id="图标" transform="translate(-101.000000, -99.000000)" fill="#FFFFFF">
            <g id="Group" transform="translate(101.951253, 99.875000)">
                <g id="Group-11" transform="translate(3.000000, 2.000000)">
                    <path d="M16,12 L16,4 C16,2.8954305 15.1045695,2 14,2 L4,2 C2.8954305,2 2,2.8954305 2,4 L2,16 C2,17.1045695 2.8954305,18 4,18 L10,18 L10,15 C10,13.3431458 11.3431458,12 13,12 L16,12 Z M14.7076064,14 L13,14 C12.4477153,14 12,14.4477153 12,15 L12,16.7076064 L14.7076064,14 Z M11.0720427,19.9974448 C11.0482489,19.9991386 11.0242251,20 11,20 L4,20 C1.790861,20 2.22044605e-16,18.209139 0,16 L0,4 C-2.22044605e-16,1.790861 1.790861,-8.8817842e-16 4,0 L14,0 C16.209139,-4.4408921e-16 18,1.790861 18,4 L18,13 C18,13.038126 17.9978664,13.0757537 17.993712,13.1127701 C17.9976604,13.3737425 17.9000677,13.6359658 17.7009339,13.8350996 L11.8301868,19.7058467 C11.62194,19.9140935 11.3446973,20.0112928 11.0720427,19.9974448 Z" id="Combined-Shape" fill-rule="nonzero"></path>
                    <path d="M5,5 L10,5 C10.5522847,5 11,5.44771525 11,6 C11,6.55228475 10.5522847,7 10,7 L5,7 C4.44771525,7 4,6.55228475 4,6 C4,5.44771525 4.44771525,5 5,5 Z" id="Rectangle-30"></path>
                    <path d="M5,9 L12,9 C12.5522847,9 13,9.44771525 13,10 C13,10.5522847 12.5522847,11 12,11 L5,11 C4.44771525,11 4,10.5522847 4,10 C4,9.44771525 4.44771525,9 5,9 Z" id="Rectangle-30"></path>
                </g>
            </g>
        </g>
    </g>
</svg>