<?xml version="1.0" encoding="UTF-8"?>
<svg width="58px" height="59px" viewBox="0 0 58 59" version="1.1" xmlns="http://www.w3.org/2000/svg" xmlns:xlink="http://www.w3.org/1999/xlink">
    <!-- Generator: Sketch 51.1 (57501) - http://www.bohemiancoding.com/sketch -->
    <title>Group 47</title>
    <desc>Created with Sketch.</desc>
    <defs>
        <circle id="path-1" cx="29" cy="29" r="29"></circle>
        <path d="M42.7203783,54.6837739 C39.4783484,50.3746677 34.7419923,48.0345663 29.2803193,48.0345663 C23.5967898,48.0345663 18.4463786,49.9114657 15.2796217,54.5240667 C18.7951975,56.7101816 23.1840163,57.8788562 28.4460783,58.0300904 C33.7081402,58.1813245 38.4662402,57.0658857 42.7203783,54.6837739 Z" id="path-3"></path>
        <path d="M26,41 L32,41 L32,48 C32,49.6568542 30.6568542,51 29,51 L29,51 C27.3431458,51 26,49.6568542 26,48 L26,41 Z" id="path-5"></path>
        <path d="M12,-4.20774526e-13 L12,-4.20774526e-13 C18.627417,-4.21991963e-13 24,5.372583 24,12 L24,24 L0,24 L0,12 C-8.11624501e-16,5.372583 5.372583,-4.1955709e-13 12,-4.20774526e-13 Z" id="path-7"></path>
    </defs>
    <g id="确认" stroke="none" stroke-width="1" fill="none" fill-rule="evenodd">
        <g id="工单详情" transform="translate(-91.000000, -139.000000)">
            <g id="Group-8">
                <g id="Group-13" transform="translate(0.000000, 120.000000)">
                    <g id="Group-47" transform="translate(91.000000, 19.000000)">
                        <g id="Group-43-Copy">
                            <g id="Group-29">
                                <g id="Group-34">
                                    <g id="Group-33">
                                        <g id="Group-44" transform="translate(0.000000, 0.000000)">
                                            <mask id="mask-2" fill="white">
                                                <use xlink:href="#path-1"></use>
                                            </mask>
                                            <use id="Oval-13" fill="#289FFF" xlink:href="#path-1"></use>
                                            <mask id="mask-4" fill="white">
                                                <use xlink:href="#path-3"></use>
                                            </mask>
                                            <use id="Oval-12" fill="#FFFFFF" xlink:href="#path-3"></use>
                                            <path d="M29,52.2942286 C26.628363,52.2942286 24.7057714,49.9160513 24.7057714,47.7065064 C24.7057714,45.4969615 26.628363,43.7057714 29,43.7057714 C31.371637,43.7057714 33.2942286,45.4969615 33.2942286,47.7065064 C33.2942286,49.9160513 31.371637,52.2942286 29,52.2942286 Z M29,50.5765372 C30.4229822,50.5765372 31.5765372,49.4229822 31.5765372,48 C31.5765372,46.5770178 30.4229822,45.4234628 29,45.4234628 C27.5770178,45.4234628 26.4234628,46.5770178 26.4234628,48 C26.4234628,49.4229822 27.5770178,50.5765372 29,50.5765372 Z" id="Combined-Shape" fill="#E7F7FF" mask="url(#mask-4)"></path>
                                        </g>
                                        <mask id="mask-6" fill="white">
                                            <use xlink:href="#path-5"></use>
                                        </mask>
                                        <use id="Rectangle-34" fill="#FFFFFF" xlink:href="#path-5"></use>
                                        <path d="M29,46 C30.6568542,46 32,45.0991602 32,44 C32,43.6054469 30.6568542,43 29,43 C27.3431458,43 26,43.6054469 26,44 C26,45.0991602 27.3431458,46 29,46 Z" id="Oval-11" fill="#E7F7FF" mask="url(#mask-6)"></path>
                                    </g>
                                    <rect id="Rectangle-31" fill="#FFFFFF" x="19" y="15" width="20" height="30" rx="10"></rect>
                                </g>
                            </g>
                            <g id="Group-45" transform="translate(17.000000, 15.000000)">
                                <g id="Group-46" transform="translate(0.000000, 0.000000)">
                                    <mask id="mask-8" fill="white">
                                        <use xlink:href="#path-7"></use>
                                    </mask>
                                    <use id="Rectangle-35" fill-opacity="0" fill="#899DB5" xlink:href="#path-7"></use>
                                    <path d="M6,9 C4.12704818,12.650874 0.538706462,16.3995024 -4,16 C-9.92993618,16.3995024 -15,10.7857115 -15,4 C-15,-1.79931476 -9.92993618,-6.90040453 -4,-7 C-0.391887323,-6.90040453 2.56546614,-5.49413247 5,-3 C6.58391898,-6.68374858 10.2606219,-9 14,-9 C20.7292645,-9 29.7368106,8.00427442 24,15 C21.2148947,19.6173409 23.1617823,14.2987435 20,14 C17.7546832,13.959524 15.0283418,14.110475 12,13 C9.5401869,12.0531945 7.2429771,10.8179907 6,9 Z" id="Combined-Shape" fill="#DBF3FF" mask="url(#mask-8)"></path>
                                </g>
                            </g>
                            <circle id="Oval-4" fill="#FFFFFF" cx="19" cy="32" r="3"></circle>
                            <circle id="Oval-4-Copy" fill="#FFFFFF" cx="39" cy="32" r="3"></circle>
                            <path d="M29,41 C30.6568542,41 32,39.73367 32,38 C32,36.6094757 26,36.6094757 26,38 C26,39.73367 27.3431458,41 29,41 Z" id="Oval-9" fill="#E7F7FF"></path>
                            <path d="M30.757164,35.2971925 C30.373345,34.4323975 29.7876509,34 29.0000817,34 C28.2125495,34 27.6268734,34.4323568 27.2430535,35.2970704 L27.2429805,35.297038 C27.1309318,35.5494742 27.2447384,35.8449477 27.4971746,35.9569964 C27.5610539,35.9853505 27.6301673,36 27.7000567,36 L30.3002119,35.9999362 C30.576319,35.9999362 30.800148,35.7761071 30.800148,35.5 C30.800148,35.4301367 30.7855052,35.361049 30.757164,35.2971925 Z" id="Combined-Shape" fill="#E7F7FF"></path>
                        </g>
                    </g>
                </g>
            </g>
        </g>
    </g>
</svg>