<?xml version="1.0" encoding="UTF-8"?>
<svg width="22px" height="22px" viewBox="0 0 22 22" version="1.1" xmlns="http://www.w3.org/2000/svg" xmlns:xlink="http://www.w3.org/1999/xlink">
    <!-- Generator: Sketch 50.2 (55047) - http://www.bohemiancoding.com/sketch -->
    <title>流转</title>
    <desc>Created with Sketch.</desc>
    <defs></defs>
    <g id="确认" stroke="none" stroke-width="1" fill="none" fill-rule="evenodd">
        <g id="工单详情" transform="translate(-1347.000000, -463.000000)" fill="#FFFFFF" fill-rule="nonzero">
            <g id="Group-6" transform="translate(280.000000, 120.000000)">
                <g id="Group-37">
                    <g transform="translate(1020.000000, 305.000000)" id="Group-22">
                        <g transform="translate(43.000000, 38.000000)">
                            <g id="交换" transform="translate(4.000000, 0.000000)">
                                <path d="M8.49427363,4.36707001 L8.49427363,1.2489702 C8.49427363,1.2489702 8.50260597,1.08351693 8.19476655,1.01197538 C7.93676878,0.952088887 7.68959287,1.13628688 7.68959287,1.13628688 C7.58033249,1.21822129 2.48652752,5.03656357 2.48652752,5.03656357 C2.48652752,5.03656357 2,5.29955394 2,5.81890157 C2,6.32611076 2.34492851,6.53278635 2.34492851,6.53278635 L7.5782494,10.3292956 C7.5782494,10.3292956 7.90989189,10.4574742 8.19240404,10.3942308 C8.49744908,10.3259387 8.49427363,10.0899912 8.49427363,10.0899912 L8.49427363,7.171531 L13.5856653,7.171531 C13.5856653,7.171531 17.6,7.74155388 17.6,9.31476977 C17.6,9.31476977 17.5325283,4.36707001 13.4562599,4.36707001 M13.5268652,17.6387197 L13.5268652,20.7595183 C13.5268652,20.7595183 13.5809002,20.949582 13.9080798,20.9950169 C14.1264787,21.025441 14.262721,20.9080677 14.3104109,20.8722999 C14.4196737,20.7902647 19.5135073,16.9687975 19.5135073,16.9687975 C19.5135073,16.9687975 20,16.7056138 20,16.1858521 C20,15.6782011 19.6550795,15.4713544 19.6550795,15.4713544 L14.421755,11.6716916 C14.421755,11.6716916 14.2040413,11.5321916 13.9081051,11.6139045 C13.5424742,11.7147903 13.5268906,11.9112718 13.5268906,11.9112718 L13.5268906,14.8320175 L8.41430092,14.8320175 C8.41430092,14.8320175 4.4,14.2616116 4.4,12.6870474 C4.4,12.6870474 4.4674359,17.6387734 8.54376667,17.6387734" id="Shape"></path>
                            </g>
                        </g>
                    </g>
                </g>
            </g>
        </g>
    </g>
</svg>