<?xml version="1.0" encoding="UTF-8"?>
<svg width="124px" height="23px" viewBox="0 0 124 23" version="1.1" xmlns="http://www.w3.org/2000/svg" xmlns:xlink="http://www.w3.org/1999/xlink">
    <!-- Generator: Sketch 50.2 (55047) - http://www.bohemiancoding.com/sketch -->
    <title>Group 20</title>
    <desc>Created with Sketch.</desc>
    <defs>
        <linearGradient x1="0%" y1="100%" x2="100%" y2="0%" id="linearGradient-1">
            <stop stop-color="#26B4FF" offset="0%"></stop>
            <stop stop-color="#2ADE98" offset="100%"></stop>
        </linearGradient>
    </defs>
    <g id="确认" stroke="none" stroke-width="1" fill="none" fill-rule="evenodd">
        <g id="工单详情" transform="translate(-58.000000, -49.000000)" fill="url(#linearGradient-1)" fill-rule="nonzero">
            <g id="Group-8">
                <g id="Group-20" transform="translate(58.000000, 49.000000)">
                    <path d="M11.4084978,18.8181818 C15.4180592,18.8181818 18.668451,15.5417202 18.668451,11.5 C18.668451,7.45827979 15.4180592,4.18181818 11.4084978,4.18181818 C7.39893641,4.18181818 4.14854466,7.45827979 4.14854466,11.5 C4.14854466,15.5417202 7.39893641,18.8181818 11.4084978,18.8181818 Z M101.22449,3.28366489 L101.22449,2.91712204 C101.22449,2.0117372 101.958449,1.27777778 102.863834,1.27777778 L103.73369,1.27777778 C104.639075,1.27777778 105.373034,2.0117372 105.373034,2.91712204 L105.373034,20.5475244 C105.373034,21.4529093 104.639075,22.1868687 103.73369,22.1868687 L102.863834,22.1868687 C101.958449,22.1868687 101.22449,21.4529093 101.22449,20.5475244 L101.22449,19.7163351 C99.459593,21.1181476 97.2320722,21.9545455 94.8107545,21.9545455 C89.0828096,21.9545455 84.4393928,17.273886 84.4393928,11.5 C84.4393928,5.72611398 89.0828096,1.04545455 94.8107545,1.04545455 C97.2320722,1.04545455 99.459593,1.88185245 101.22449,3.28366489 Z M101.22449,9.96895456 C100.546588,7.24466166 98.1011914,5.22727273 95.1883573,5.22727273 C91.7515904,5.22727273 88.9655403,8.03566839 88.9655403,11.5 C88.9655403,14.9643316 91.7515904,17.7727273 95.1883573,17.7727273 C98.1011914,17.7727273 100.546588,15.7553383 101.22449,13.0310454 L101.22449,9.96895456 Z M81.0385606,18.2223453 L81.04474,18.226845 C78.9726136,21.1183319 75.5995846,23 71.7905654,23 C65.489826,23 60.3820676,17.8512746 60.3820676,11.5 C60.3820676,5.14872538 65.489826,0 71.7905654,0 C75.0353149,0 77.9636816,1.36546018 80.0410076,3.55743431 L80.0397672,3.55862876 C80.431467,3.93897773 80.6751535,4.47313974 80.6751535,5.06467428 C80.6751535,6.21945149 79.7464702,7.15558338 78.6008812,7.15558338 C77.9799525,7.15558338 77.4227468,6.88056425 77.0426042,6.44477504 L77.0412617,6.44606787 C75.6770916,5.00660889 73.8041736,4.18181818 71.7905654,4.18181818 C67.781004,4.18181818 64.5306122,7.45827979 64.5306122,11.5 C64.5306122,15.5417202 67.781004,18.8181818 71.7905654,18.8181818 C74.1505042,18.8181818 76.3142013,17.6800148 77.6747867,15.7879218 C78.0419092,15.1999896 78.6914591,14.8093022 79.4315329,14.8093022 C80.5771219,14.8093022 81.5058053,15.7454341 81.5058053,16.9002113 C81.5058053,17.401763 81.330618,17.8620693 81.0385606,18.2223453 Z M42.0909178,21.2325841 L42.0662429,21.2320305 L42.0662429,10.4545455 C42.0662429,6.99021384 39.2801928,4.18181818 35.8434259,4.18181818 C32.406659,4.18181818 29.6206089,6.99021384 29.6206089,10.4545455 L29.6206089,20.8597458 L29.6200426,20.8597458 C29.6204194,20.8761482 29.6206089,20.8925973 29.6206089,20.9090909 C29.6206089,22.0638681 28.6919255,23 27.5463366,23 C26.4007476,23 25.4720642,22.0638681 25.4720642,20.9090909 C25.4720642,20.8925973 25.4722537,20.8761482 25.4726305,20.8597458 L25.4720642,20.8597458 L25.4720642,10.4545455 C25.4720642,4.68065943 30.115481,0 35.8434259,0 C41.5713708,0 46.2147876,4.68065943 46.2147876,10.4545455 L46.2147876,21.3251017 L46.173914,21.3241847 C45.9829097,22.2801142 45.1451127,23 44.1405152,23 C43.1040735,23 42.2451745,22.2337523 42.0909178,21.2325841 Z M11.4084978,23 C5.10775846,23 0,17.8512746 0,11.5 C0,5.14872538 5.10775846,0 11.4084978,0 C17.7092372,0 22.8169957,5.14872538 22.8169957,11.5 C22.8169957,17.8512746 17.7092372,23 11.4084978,23 Z M112.156574,0 L113.02643,0 C113.931815,-1.66316496e-16 114.665775,0.733959427 114.665775,1.63934426 L114.665775,21.3606557 C114.665775,22.2660406 113.931815,23 113.02643,23 L112.156574,23 C111.251189,23 110.51723,22.2660406 110.51723,21.3606557 L110.51723,1.63934426 C110.51723,0.733959427 111.251189,-7.21861924e-16 112.156574,-8.8817842e-16 Z M121.4908,0 L122.360656,-2.22044605e-16 C123.266041,-3.88361101e-16 124,0.733959427 124,1.63934426 L124,21.3606557 C124,22.2660406 123.266041,23 122.360656,23 L121.4908,23 C120.585415,23 119.851455,22.2660406 119.851455,21.3606557 L119.851455,1.63934426 C119.851455,0.733959427 120.585415,-9.43906528e-16 121.4908,-1.11022302e-15 Z" id="Combined-Shape"></path>
                </g>
            </g>
        </g>
    </g>
</svg>